<svg xmlns="http://www.w3.org/2000/svg" viewBox="0 0 800 240" width="800" height="240" shape-rendering="crispEdges" role="img" aria-label="Lucent — finances, illuminated.">
<rect x="0" y="0" width="800" height="240" fill="#20284d"/>
<rect x="0" y="0" width="800" height="15" fill="#20284d"/>
<rect x="0" y="15" width="800" height="15" fill="#313c66"/>
<rect x="0" y="30" width="800" height="15" fill="#41507e"/>
<rect x="0" y="45" width="800" height="15" fill="#566392"/>
<rect x="0" y="60" width="800" height="15" fill="#6f6f9c"/>
<rect x="0" y="75" width="800" height="15" fill="#8a76a0"/>
<rect x="0" y="90" width="800" height="15" fill="#b27f93"/>
<rect x="0" y="105" width="800" height="15" fill="#db8f76"/>
<rect x="0" y="120" width="800" height="15" fill="#f0a85f"/>
<rect x="0" y="135" width="800" height="15" fill="#f9c861"/>
<rect x="0" y="150" width="800" height="10" fill="#ffe18a"/>
<rect x="410" y="10" width="5" height="5" fill="#cdd6f2" opacity="0.3881882237481107"/>
<rect x="60" y="5" width="5" height="5" fill="#cdd6f2" opacity="0.5374460021969578"/>
<rect x="120" y="25" width="5" height="5" fill="#cdd6f2" opacity="0.45397580206617427"/>
<rect x="645" y="15" width="5" height="5" fill="#cdd6f2" opacity="0.2631234804546947"/>
<rect x="555" y="30" width="5" height="5" fill="#cdd6f2" opacity="0.27444939825111664"/>
<rect x="115" y="40" width="5" height="5" fill="#cdd6f2" opacity="0.39858171619987987"/>
<rect x="720" y="5" width="5" height="5" fill="#cdd6f2" opacity="0.5816073952476206"/>
<rect x="745" y="0" width="5" height="5" fill="#cdd6f2" opacity="0.45198603201612453"/>
<rect x="505" y="0" width="5" height="5" fill="#cdd6f2" opacity="0.591689286957522"/>
<rect x="55" y="40" width="5" height="5" fill="#cdd6f2" opacity="0.5504639606670378"/>
<rect x="370" y="30" width="5" height="5" fill="#cdd6f2" opacity="0.30048927917510315"/>
<rect x="150" y="45" width="5" height="5" fill="#cdd6f2" opacity="0.35796863843567706"/>
<rect x="230" y="5" width="5" height="5" fill="#cdd6f2" opacity="0.4535600572818632"/>
<rect x="240" y="25" width="5" height="5" fill="#cdd6f2" opacity="0.2841007015981567"/>
<rect x="80" y="45" width="5" height="5" fill="#cdd6f2" opacity="0.2708604094881814"/>
<rect x="260" y="35" width="5" height="5" fill="#cdd6f2" opacity="0.48813999061362506"/>
<rect x="545" y="25" width="5" height="5" fill="#cdd6f2" opacity="0.41296065304388585"/>
<rect x="580" y="25" width="5" height="5" fill="#cdd6f2" opacity="0.35491844890228885"/>
<rect x="230" y="15" width="5" height="5" fill="#cdd6f2" opacity="0.27864925377851946"/>
<rect x="380" y="40" width="5" height="5" fill="#cdd6f2" opacity="0.42329072584433947"/>
<rect x="435" y="35" width="5" height="5" fill="#cdd6f2" opacity="0.35077821771156525"/>
<rect x="90" y="5" width="5" height="5" fill="#cdd6f2" opacity="0.4291764907266422"/>
<rect x="210" y="25" width="5" height="5" fill="#cdd6f2" opacity="0.30319458713117664"/>
<rect x="625" y="30" width="5" height="5" fill="#cdd6f2" opacity="0.26372253996660316"/>
<rect x="95" y="40" width="5" height="5" fill="#cdd6f2" opacity="0.45055907909708437"/>
<rect x="400" y="25" width="5" height="5" fill="#cdd6f2" opacity="0.49335337819578073"/>
<polygon points="0,150 0,150 5,150 5,145 10,145 10,140 15,140 15,135 20,135 20,135 25,135 25,130 30,130 30,125 35,125 35,120 40,120 40,115 45,115 45,115 50,115 50,120 55,120 55,125 60,125 60,125 65,125 65,125 70,125 70,130 75,130 75,135 80,135 80,135 85,135 85,130 90,130 90,125 95,125 95,115 100,115 100,110 105,110 105,105 110,105 110,95 115,95 115,90 120,90 120,85 125,85 125,90 130,90 130,95 135,95 135,105 140,105 140,110 145,110 145,115 150,115 150,120 155,120 155,130 160,130 160,135 165,135 165,140 170,140 170,135 175,135 175,130 180,130 180,125 185,125 185,125 190,125 190,120 195,120 195,115 200,115 200,110 205,110 205,105 210,105 210,110 215,110 215,115 220,115 220,120 225,120 225,125 230,125 230,125 235,125 235,130 240,130 240,135 245,135 245,140 250,140 250,145 255,145 255,140 260,140 260,135 265,135 265,130 270,130 270,125 275,125 275,120 280,120 280,115 285,115 285,110 290,110 290,105 295,105 295,100 300,100 300,95 305,95 305,100 310,100 310,100 315,100 315,105 320,105 320,105 325,105 325,110 330,110 330,115 335,115 335,115 340,115 340,120 345,120 345,120 350,120 350,125 355,125 355,125 360,125 360,130 365,130 365,125 370,125 370,120 375,120 375,115 380,115 380,110 385,110 385,105 390,105 390,105 395,105 395,100 400,100 400,95 405,95 405,90 410,90 410,85 415,85 415,80 420,80 420,75 425,75 425,80 430,80 430,85 435,85 435,85 440,85 440,90 445,90 445,95 450,95 450,100 455,100 455,105 460,105 460,110 465,110 465,115 470,115 470,115 475,115 475,120 480,120 480,125 485,125 485,125 490,125 490,120 495,120 495,120 500,120 500,115 505,115 505,115 510,115 510,115 515,115 515,110 520,110 520,110 525,110 525,105 530,105 530,105 535,105 535,110 540,110 540,110 545,110 545,115 550,115 550,115 555,115 555,120 560,120 560,125 565,125 565,125 570,125 570,130 575,130 575,130 580,130 580,135 585,135 585,135 590,135 590,140 595,140 595,135 600,135 600,130 605,130 605,125 610,125 610,120 615,120 615,115 620,115 620,115 625,115 625,110 630,110 630,105 635,105 635,100 640,100 640,95 645,95 645,90 650,90 650,85 655,85 655,90 660,90 660,95 665,95 665,95 670,95 670,100 675,100 675,105 680,105 680,105 685,105 685,110 690,110 690,115 695,115 695,120 700,120 700,125 705,125 705,125 710,125 710,130 715,130 715,130 720,130 720,125 725,125 725,125 730,125 730,120 735,120 735,120 740,120 740,120 745,120 745,115 750,115 750,115 755,115 755,110 760,110 760,110 765,110 765,115 770,115 770,120 775,120 775,125 780,125 780,130 785,130 785,135 790,135 790,140 795,140 795,145 800,145 800,150 800,240 0,240" fill="#5a4f7e"/>
<polygon points="0,145 0,145 5,145 5,140 10,140 10,135 15,135 15,130 20,130 20,130 25,130 25,125 30,125 30,120 35,120 35,115 40,115 40,110 45,110 45,110 50,110 50,115 55,115 55,120 60,120 60,120 65,120 65,120 70,120 70,125 75,125 75,130 80,130 80,130 85,130 85,125 90,125 90,120 95,120 95,110 100,110 100,105 105,105 105,100 110,100 110,90 115,90 115,85 120,85 120,80 125,80 125,85 130,85 130,90 135,90 135,100 140,100 140,105 145,105 145,110 150,110 150,115 155,115 155,125 160,125 160,130 165,130 165,135 170,135 170,130 175,130 175,125 180,125 180,120 185,120 185,120 190,120 190,115 195,115 195,110 200,110 200,105 205,105 205,100 210,100 210,105 215,105 215,110 220,110 220,115 225,115 225,120 230,120 230,120 235,120 235,125 240,125 240,130 245,130 245,135 250,135 250,140 255,140 255,135 260,135 260,130 265,130 265,125 270,125 270,120 275,120 275,115 280,115 280,110 285,110 285,105 290,105 290,100 295,100 295,95 300,95 300,90 305,90 305,95 310,95 310,95 315,95 315,100 320,100 320,100 325,100 325,105 330,105 330,110 335,110 335,110 340,110 340,115 345,115 345,115 350,115 350,120 355,120 355,120 360,120 360,125 365,125 365,120 370,120 370,115 375,115 375,110 380,110 380,105 385,105 385,100 390,100 390,100 395,100 395,95 400,95 400,90 405,90 405,85 410,85 410,80 415,80 415,75 420,75 420,70 425,70 425,75 430,75 430,80 435,80 435,80 440,80 440,85 445,85 445,90 450,90 450,95 455,95 455,100 460,100 460,105 465,105 465,110 470,110 470,110 475,110 475,115 480,115 480,120 485,120 485,120 490,120 490,115 495,115 495,115 500,115 500,110 505,110 505,110 510,110 510,110 515,110 515,105 520,105 520,105 525,105 525,100 530,100 530,100 535,100 535,105 540,105 540,105 545,105 545,110 550,110 550,110 555,110 555,115 560,115 560,120 565,120 565,120 570,120 570,125 575,125 575,125 580,125 580,130 585,130 585,130 590,130 590,135 595,135 595,130 600,130 600,125 605,125 605,120 610,120 610,115 615,115 615,110 620,110 620,110 625,110 625,105 630,105 630,100 635,100 635,95 640,95 640,90 645,90 645,85 650,85 650,80 655,80 655,85 660,85 660,90 665,90 665,90 670,90 670,95 675,95 675,100 680,100 680,100 685,100 685,105 690,105 690,110 695,110 695,115 700,115 700,120 705,120 705,120 710,120 710,125 715,125 715,125 720,125 720,120 725,120 725,120 730,120 730,115 735,115 735,115 740,115 740,115 745,115 745,110 750,110 750,110 755,110 755,105 760,105 760,105 765,105 765,110 770,110 770,115 775,115 775,120 780,120 780,125 785,125 785,130 790,130 790,135 795,135 795,140 800,140 800,145 800,240 0,240" fill="#6f6394"/>
<rect x="420" y="70" width="5" height="5" fill="#f6d6ab"/>
<rect x="415" y="75" width="15" height="5" fill="#f6d6ab"/>
<rect x="120" y="80" width="5" height="5" fill="#f6d6ab"/>
<rect x="115" y="85" width="15" height="5" fill="#f6d6ab"/>
<rect x="650" y="80" width="5" height="5" fill="#f6d6ab"/>
<rect x="645" y="85" width="15" height="5" fill="#f6d6ab"/>
<circle cx="560" cy="115" r="108.0" fill="#ffcf63" opacity="0.10"/>
<circle cx="560" cy="115" r="68.0" fill="#ffcf63" opacity="0.16"/>
<rect x="520" y="115" width="5" height="5" fill="#ffe487"/>
<rect x="525" y="100" width="5" height="5" fill="#ffe487"/>
<rect x="525" y="105" width="5" height="5" fill="#ffe487"/>
<rect x="525" y="110" width="5" height="5" fill="#ffe487"/>
<rect x="525" y="115" width="5" height="5" fill="#ffe487"/>
<rect x="525" y="120" width="5" height="5" fill="#ffe487"/>
<rect x="525" y="125" width="5" height="5" fill="#ffe487"/>
<rect x="525" y="130" width="5" height="5" fill="#ffe487"/>
<rect x="530" y="90" width="5" height="5" fill="#ffe487"/>
<rect x="530" y="95" width="5" height="5" fill="#ffe487"/>
<rect x="530" y="100" width="5" height="5" fill="#ffe487"/>
<rect x="530" y="105" width="5" height="5" fill="#ffe487"/>
<rect x="530" y="110" width="5" height="5" fill="#ffe487"/>
<rect x="530" y="115" width="5" height="5" fill="#ffe487"/>
<rect x="530" y="120" width="5" height="5" fill="#ffe487"/>
<rect x="530" y="125" width="5" height="5" fill="#ffe487"/>
<rect x="530" y="130" width="5" height="5" fill="#ffe487"/>
<rect x="530" y="135" width="5" height="5" fill="#ffe487"/>
<rect x="530" y="140" width="5" height="5" fill="#ffe487"/>
<rect x="535" y="85" width="5" height="5" fill="#ffe487"/>
<rect x="535" y="90" width="5" height="5" fill="#ffe487"/>
<rect x="535" y="95" width="5" height="5" fill="#ffe487"/>
<rect x="535" y="100" width="5" height="5" fill="#ffe487"/>
<rect x="535" y="105" width="5" height="5" fill="#ffe487"/>
<rect x="535" y="110" width="5" height="5" fill="#ffe487"/>
<rect x="535" y="115" width="5" height="5" fill="#fff7d6"/>
<rect x="535" y="120" width="5" height="5" fill="#ffe487"/>
<rect x="535" y="125" width="5" height="5" fill="#ffe487"/>
<rect x="535" y="130" width="5" height="5" fill="#ffe487"/>
<rect x="535" y="135" width="5" height="5" fill="#ffe487"/>
<rect x="535" y="140" width="5" height="5" fill="#ffe487"/>
<rect x="535" y="145" width="5" height="5" fill="#ffe487"/>
<rect x="540" y="85" width="5" height="5" fill="#ffe487"/>
<rect x="540" y="90" width="5" height="5" fill="#ffe487"/>
<rect x="540" y="95" width="5" height="5" fill="#ffe487"/>
<rect x="540" y="100" width="5" height="5" fill="#fff7d6"/>
<rect x="540" y="105" width="5" height="5" fill="#fff7d6"/>
<rect x="540" y="110" width="5" height="5" fill="#fff7d6"/>
<rect x="540" y="115" width="5" height="5" fill="#fff7d6"/>
<rect x="540" y="120" width="5" height="5" fill="#fff7d6"/>
<rect x="540" y="125" width="5" height="5" fill="#fff7d6"/>
<rect x="540" y="130" width="5" height="5" fill="#fff7d6"/>
<rect x="540" y="135" width="5" height="5" fill="#ffe487"/>
<rect x="540" y="140" width="5" height="5" fill="#ffe487"/>
<rect x="540" y="145" width="5" height="5" fill="#ffe487"/>
<rect x="545" y="80" width="5" height="5" fill="#ffe487"/>
<rect x="545" y="85" width="5" height="5" fill="#ffe487"/>
<rect x="545" y="90" width="5" height="5" fill="#ffe487"/>
<rect x="545" y="95" width="5" height="5" fill="#fff7d6"/>
<rect x="545" y="100" width="5" height="5" fill="#fff7d6"/>
<rect x="545" y="105" width="5" height="5" fill="#fff7d6"/>
<rect x="545" y="110" width="5" height="5" fill="#fff7d6"/>
<rect x="545" y="115" width="5" height="5" fill="#fff7d6"/>
<rect x="545" y="120" width="5" height="5" fill="#fff7d6"/>
<rect x="545" y="125" width="5" height="5" fill="#fff7d6"/>
<rect x="545" y="130" width="5" height="5" fill="#fff7d6"/>
<rect x="545" y="135" width="5" height="5" fill="#fff7d6"/>
<rect x="545" y="140" width="5" height="5" fill="#ffe487"/>
<rect x="545" y="145" width="5" height="5" fill="#ffe487"/>
<rect x="545" y="150" width="5" height="5" fill="#ffe487"/>
<rect x="550" y="80" width="5" height="5" fill="#ffe487"/>
<rect x="550" y="85" width="5" height="5" fill="#ffe487"/>
<rect x="550" y="90" width="5" height="5" fill="#ffe487"/>
<rect x="550" y="95" width="5" height="5" fill="#fff7d6"/>
<rect x="550" y="100" width="5" height="5" fill="#fff7d6"/>
<rect x="550" y="105" width="5" height="5" fill="#fff7d6"/>
<rect x="550" y="110" width="5" height="5" fill="#fff7d6"/>
<rect x="550" y="115" width="5" height="5" fill="#fff7d6"/>
<rect x="550" y="120" width="5" height="5" fill="#fff7d6"/>
<rect x="550" y="125" width="5" height="5" fill="#fff7d6"/>
<rect x="550" y="130" width="5" height="5" fill="#fff7d6"/>
<rect x="550" y="135" width="5" height="5" fill="#fff7d6"/>
<rect x="550" y="140" width="5" height="5" fill="#ffe487"/>
<rect x="550" y="145" width="5" height="5" fill="#ffe487"/>
<rect x="550" y="150" width="5" height="5" fill="#ffe487"/>
<rect x="555" y="80" width="5" height="5" fill="#ffe487"/>
<rect x="555" y="85" width="5" height="5" fill="#ffe487"/>
<rect x="555" y="90" width="5" height="5" fill="#ffe487"/>
<rect x="555" y="95" width="5" height="5" fill="#fff7d6"/>
<rect x="555" y="100" width="5" height="5" fill="#fff7d6"/>
<rect x="555" y="105" width="5" height="5" fill="#fff7d6"/>
<rect x="555" y="110" width="5" height="5" fill="#fff7d6"/>
<rect x="555" y="115" width="5" height="5" fill="#fff7d6"/>
<rect x="555" y="120" width="5" height="5" fill="#fff7d6"/>
<rect x="555" y="125" width="5" height="5" fill="#fff7d6"/>
<rect x="555" y="130" width="5" height="5" fill="#fff7d6"/>
<rect x="555" y="135" width="5" height="5" fill="#fff7d6"/>
<rect x="555" y="140" width="5" height="5" fill="#ffe487"/>
<rect x="555" y="145" width="5" height="5" fill="#ffe487"/>
<rect x="555" y="150" width="5" height="5" fill="#ffe487"/>
<rect x="560" y="75" width="5" height="5" fill="#ffe487"/>
<rect x="560" y="80" width="5" height="5" fill="#ffe487"/>
<rect x="560" y="85" width="5" height="5" fill="#ffe487"/>
<rect x="560" y="90" width="5" height="5" fill="#fff7d6"/>
<rect x="560" y="95" width="5" height="5" fill="#fff7d6"/>
<rect x="560" y="100" width="5" height="5" fill="#fff7d6"/>
<rect x="560" y="105" width="5" height="5" fill="#fff7d6"/>
<rect x="560" y="110" width="5" height="5" fill="#fff7d6"/>
<rect x="560" y="115" width="5" height="5" fill="#fff7d6"/>
<rect x="560" y="120" width="5" height="5" fill="#fff7d6"/>
<rect x="560" y="125" width="5" height="5" fill="#fff7d6"/>
<rect x="560" y="130" width="5" height="5" fill="#fff7d6"/>
<rect x="560" y="135" width="5" height="5" fill="#fff7d6"/>
<rect x="560" y="140" width="5" height="5" fill="#fff7d6"/>
<rect x="560" y="145" width="5" height="5" fill="#ffe487"/>
<rect x="560" y="150" width="5" height="5" fill="#ffe487"/>
<rect x="560" y="155" width="5" height="5" fill="#ffe487"/>
<rect x="565" y="80" width="5" height="5" fill="#ffe487"/>
<rect x="565" y="85" width="5" height="5" fill="#ffe487"/>
<rect x="565" y="90" width="5" height="5" fill="#ffe487"/>
<rect x="565" y="95" width="5" height="5" fill="#fff7d6"/>
<rect x="565" y="100" width="5" height="5" fill="#fff7d6"/>
<rect x="565" y="105" width="5" height="5" fill="#fff7d6"/>
<rect x="565" y="110" width="5" height="5" fill="#fff7d6"/>
<rect x="565" y="115" width="5" height="5" fill="#fff7d6"/>
<rect x="565" y="120" width="5" height="5" fill="#fff7d6"/>
<rect x="565" y="125" width="5" height="5" fill="#fff7d6"/>
<rect x="565" y="130" width="5" height="5" fill="#fff7d6"/>
<rect x="565" y="135" width="5" height="5" fill="#fff7d6"/>
<rect x="565" y="140" width="5" height="5" fill="#ffe487"/>
<rect x="565" y="145" width="5" height="5" fill="#ffe487"/>
<rect x="565" y="150" width="5" height="5" fill="#ffe487"/>
<rect x="570" y="80" width="5" height="5" fill="#ffe487"/>
<rect x="570" y="85" width="5" height="5" fill="#ffe487"/>
<rect x="570" y="90" width="5" height="5" fill="#ffe487"/>
<rect x="570" y="95" width="5" height="5" fill="#fff7d6"/>
<rect x="570" y="100" width="5" height="5" fill="#fff7d6"/>
<rect x="570" y="105" width="5" height="5" fill="#fff7d6"/>
<rect x="570" y="110" width="5" height="5" fill="#fff7d6"/>
<rect x="570" y="115" width="5" height="5" fill="#fff7d6"/>
<rect x="570" y="120" width="5" height="5" fill="#fff7d6"/>
<rect x="570" y="125" width="5" height="5" fill="#fff7d6"/>
<rect x="570" y="130" width="5" height="5" fill="#fff7d6"/>
<rect x="570" y="135" width="5" height="5" fill="#fff7d6"/>
<rect x="570" y="140" width="5" height="5" fill="#ffe487"/>
<rect x="570" y="145" width="5" height="5" fill="#ffe487"/>
<rect x="570" y="150" width="5" height="5" fill="#ffe487"/>
<rect x="575" y="80" width="5" height="5" fill="#ffe487"/>
<rect x="575" y="85" width="5" height="5" fill="#ffe487"/>
<rect x="575" y="90" width="5" height="5" fill="#ffe487"/>
<rect x="575" y="95" width="5" height="5" fill="#fff7d6"/>
<rect x="575" y="100" width="5" height="5" fill="#fff7d6"/>
<rect x="575" y="105" width="5" height="5" fill="#fff7d6"/>
<rect x="575" y="110" width="5" height="5" fill="#fff7d6"/>
<rect x="575" y="115" width="5" height="5" fill="#fff7d6"/>
<rect x="575" y="120" width="5" height="5" fill="#fff7d6"/>
<rect x="575" y="125" width="5" height="5" fill="#fff7d6"/>
<rect x="575" y="130" width="5" height="5" fill="#fff7d6"/>
<rect x="575" y="135" width="5" height="5" fill="#fff7d6"/>
<rect x="575" y="140" width="5" height="5" fill="#ffe487"/>
<rect x="575" y="145" width="5" height="5" fill="#ffe487"/>
<rect x="575" y="150" width="5" height="5" fill="#ffe487"/>
<rect x="580" y="85" width="5" height="5" fill="#ffe487"/>
<rect x="580" y="90" width="5" height="5" fill="#ffe487"/>
<rect x="580" y="95" width="5" height="5" fill="#ffe487"/>
<rect x="580" y="100" width="5" height="5" fill="#fff7d6"/>
<rect x="580" y="105" width="5" height="5" fill="#fff7d6"/>
<rect x="580" y="110" width="5" height="5" fill="#fff7d6"/>
<rect x="580" y="115" width="5" height="5" fill="#fff7d6"/>
<rect x="580" y="120" width="5" height="5" fill="#fff7d6"/>
<rect x="580" y="125" width="5" height="5" fill="#fff7d6"/>
<rect x="580" y="130" width="5" height="5" fill="#fff7d6"/>
<rect x="580" y="135" width="5" height="5" fill="#ffe487"/>
<rect x="580" y="140" width="5" height="5" fill="#ffe487"/>
<rect x="580" y="145" width="5" height="5" fill="#ffe487"/>
<rect x="585" y="85" width="5" height="5" fill="#ffe487"/>
<rect x="585" y="90" width="5" height="5" fill="#ffe487"/>
<rect x="585" y="95" width="5" height="5" fill="#ffe487"/>
<rect x="585" y="100" width="5" height="5" fill="#ffe487"/>
<rect x="585" y="105" width="5" height="5" fill="#ffe487"/>
<rect x="585" y="110" width="5" height="5" fill="#ffe487"/>
<rect x="585" y="115" width="5" height="5" fill="#fff7d6"/>
<rect x="585" y="120" width="5" height="5" fill="#ffe487"/>
<rect x="585" y="125" width="5" height="5" fill="#ffe487"/>
<rect x="585" y="130" width="5" height="5" fill="#ffe487"/>
<rect x="585" y="135" width="5" height="5" fill="#ffe487"/>
<rect x="585" y="140" width="5" height="5" fill="#ffe487"/>
<rect x="585" y="145" width="5" height="5" fill="#ffe487"/>
<rect x="590" y="90" width="5" height="5" fill="#ffe487"/>
<rect x="590" y="95" width="5" height="5" fill="#ffe487"/>
<rect x="590" y="100" width="5" height="5" fill="#ffe487"/>
<rect x="590" y="105" width="5" height="5" fill="#ffe487"/>
<rect x="590" y="110" width="5" height="5" fill="#ffe487"/>
<rect x="590" y="115" width="5" height="5" fill="#ffe487"/>
<rect x="590" y="120" width="5" height="5" fill="#ffe487"/>
<rect x="590" y="125" width="5" height="5" fill="#ffe487"/>
<rect x="590" y="130" width="5" height="5" fill="#ffe487"/>
<rect x="590" y="135" width="5" height="5" fill="#ffe487"/>
<rect x="590" y="140" width="5" height="5" fill="#ffe487"/>
<rect x="595" y="100" width="5" height="5" fill="#ffe487"/>
<rect x="595" y="105" width="5" height="5" fill="#ffe487"/>
<rect x="595" y="110" width="5" height="5" fill="#ffe487"/>
<rect x="595" y="115" width="5" height="5" fill="#ffe487"/>
<rect x="595" y="120" width="5" height="5" fill="#ffe487"/>
<rect x="595" y="125" width="5" height="5" fill="#ffe487"/>
<rect x="595" y="130" width="5" height="5" fill="#ffe487"/>
<rect x="600" y="115" width="5" height="5" fill="#ffe487"/>
<rect x="255" y="55" width="20" height="5" fill="#ffeede" opacity="0.7"/>
<rect x="250" y="60" width="30" height="5" fill="#f7dcc4" opacity="0.85"/>
<rect x="255" y="65" width="25" height="5" fill="#e7b89c" opacity="0.6"/>
<rect x="705" y="30" width="20" height="5" fill="#ffeede" opacity="0.7"/>
<rect x="700" y="35" width="30" height="5" fill="#f7dcc4" opacity="0.85"/>
<rect x="705" y="40" width="25" height="5" fill="#e7b89c" opacity="0.6"/>
<rect x="300" y="45" width="5" height="5" fill="#2a2440"/>
<rect x="305" y="40" width="5" height="5" fill="#2a2440"/>
<rect x="310" y="40" width="5" height="5" fill="#2a2440"/>
<rect x="315" y="45" width="5" height="5" fill="#2a2440"/>
<rect x="335" y="35" width="5" height="5" fill="#2a2440"/>
<rect x="340" y="30" width="5" height="5" fill="#2a2440"/>
<rect x="345" y="30" width="5" height="5" fill="#2a2440"/>
<rect x="350" y="35" width="5" height="5" fill="#2a2440"/>
<rect x="370" y="50" width="5" height="5" fill="#2a2440"/>
<rect x="375" y="45" width="5" height="5" fill="#2a2440"/>
<rect x="380" y="45" width="5" height="5" fill="#2a2440"/>
<rect x="385" y="50" width="5" height="5" fill="#2a2440"/>
<rect x="410" y="40" width="5" height="5" fill="#2a2440"/>
<rect x="415" y="35" width="5" height="5" fill="#2a2440"/>
<rect x="420" y="35" width="5" height="5" fill="#2a2440"/>
<rect x="425" y="40" width="5" height="5" fill="#2a2440"/>
<rect x="445" y="30" width="5" height="5" fill="#2a2440"/>
<rect x="450" y="25" width="5" height="5" fill="#2a2440"/>
<rect x="455" y="25" width="5" height="5" fill="#2a2440"/>
<rect x="460" y="30" width="5" height="5" fill="#2a2440"/>
<polygon points="0,170 0,170 5,170 5,170 10,170 10,165 15,165 15,170 20,170 20,170 25,170 25,165 30,165 30,165 35,165 35,160 40,160 40,165 45,165 45,160 50,160 50,165 55,165 55,160 60,160 60,160 65,160 65,160 70,160 70,160 75,160 75,155 80,155 80,155 85,155 85,155 90,155 90,155 95,155 95,150 100,150 100,155 105,155 105,150 110,150 110,150 115,150 115,150 120,150 120,155 125,155 125,150 130,150 130,150 135,150 135,150 140,150 140,150 145,150 145,150 150,150 150,150 155,150 155,145 160,145 160,145 165,145 165,145 170,145 170,150 175,150 175,150 180,150 180,145 185,145 185,145 190,145 190,145 195,145 195,145 200,145 200,145 205,145 205,145 210,145 210,145 215,145 215,145 220,145 220,145 225,145 225,145 230,145 230,145 235,145 235,145 240,145 240,145 245,145 245,145 250,145 250,145 255,145 255,145 260,145 260,145 265,145 265,150 270,150 270,145 275,145 275,150 280,150 280,150 285,150 285,145 290,145 290,145 295,145 295,145 300,145 300,145 305,145 305,140 310,140 310,140 315,140 315,140 320,140 320,140 325,140 325,140 330,140 330,140 335,140 335,140 340,140 340,140 345,140 345,140 350,140 350,140 355,140 355,140 360,140 360,145 365,145 365,140 370,140 370,140 375,140 375,140 380,140 380,140 385,140 385,140 390,140 390,140 395,140 395,140 400,140 400,145 405,145 405,140 410,140 410,140 415,140 415,140 420,140 420,140 425,140 425,140 430,140 430,140 435,140 435,145 440,145 440,140 445,140 445,140 450,140 450,145 455,145 455,145 460,145 460,140 465,140 465,145 470,145 470,140 475,140 475,145 480,145 480,145 485,145 485,145 490,145 490,145 495,145 495,140 500,140 500,140 505,140 505,140 510,140 510,140 515,140 515,140 520,140 520,140 525,140 525,140 530,140 530,140 535,140 535,140 540,140 540,140 545,140 545,140 550,140 550,140 555,140 555,140 560,140 560,140 565,140 565,140 570,140 570,140 575,140 575,140 580,140 580,140 585,140 585,140 590,140 590,140 595,140 595,140 600,140 600,140 605,140 605,145 610,145 610,140 615,140 615,145 620,145 620,145 625,145 625,145 630,145 630,145 635,145 635,140 640,140 640,145 645,145 645,145 650,145 650,145 655,145 655,145 660,145 660,150 665,150 665,150 670,150 670,145 675,145 675,150 680,150 680,150 685,150 685,145 690,145 690,150 695,150 695,150 700,150 700,150 705,150 705,155 710,155 710,150 715,150 715,150 720,150 720,155 725,155 725,155 730,155 730,155 735,155 735,160 740,160 740,155 745,155 745,155 750,155 750,160 755,160 755,160 760,160 760,160 765,160 765,160 770,160 770,160 775,160 775,165 780,165 780,165 785,165 785,165 790,165 790,165 795,165 795,170 800,170 800,170 800,240 0,240" fill="#6fa12f"/>
<polygon points="0,175 0,175 5,175 5,175 10,175 10,175 15,175 15,170 20,170 20,175 25,175 25,175 30,175 30,175 35,175 35,175 40,175 40,170 45,170 45,175 50,175 50,175 55,175 55,170 60,170 60,170 65,170 65,170 70,170 70,170 75,170 75,170 80,170 80,170 85,170 85,170 90,170 90,170 95,170 95,170 100,170 100,170 105,170 105,170 110,170 110,170 115,170 115,170 120,170 120,170 125,170 125,170 130,170 130,170 135,170 135,170 140,170 140,170 145,170 145,170 150,170 150,170 155,170 155,170 160,170 160,170 165,170 165,175 170,175 170,170 175,170 175,175 180,175 180,175 185,175 185,175 190,175 190,175 195,175 195,175 200,175 200,175 205,175 205,180 210,180 210,175 215,175 215,180 220,180 220,175 225,175 225,175 230,175 230,180 235,180 235,175 240,175 240,175 245,175 245,175 250,175 250,180 255,180 255,175 260,175 260,175 265,175 265,175 270,175 270,175 275,175 275,175 280,175 280,175 285,175 285,175 290,175 290,175 295,175 295,180 300,180 300,175 305,175 305,180 310,180 310,175 315,175 315,175 320,175 320,175 325,175 325,175 330,175 330,175 335,175 335,170 340,170 340,170 345,170 345,170 350,170 350,170 355,170 355,170 360,170 360,165 365,165 365,170 370,170 370,170 375,170 375,170 380,170 380,165 385,165 385,170 390,170 390,170 395,170 395,165 400,165 400,170 405,170 405,170 410,170 410,165 415,165 415,170 420,170 420,165 425,165 425,165 430,165 430,170 435,170 435,165 440,165 440,165 445,165 445,165 450,165 450,165 455,165 455,165 460,165 460,165 465,165 465,165 470,165 470,165 475,165 475,165 480,165 480,165 485,165 485,165 490,165 490,165 495,165 495,165 500,165 500,165 505,165 505,165 510,165 510,165 515,165 515,170 520,170 520,170 525,170 525,170 530,170 530,165 535,165 535,170 540,170 540,165 545,165 545,170 550,170 550,170 555,170 555,170 560,170 560,170 565,170 565,175 570,175 570,175 575,175 575,170 580,170 580,170 585,170 585,175 590,175 590,170 595,170 595,170 600,170 600,170 605,170 605,170 610,170 610,170 615,170 615,170 620,170 620,170 625,170 625,170 630,170 630,170 635,170 635,170 640,170 640,170 645,170 645,170 650,170 650,170 655,170 655,175 660,175 660,170 665,170 665,170 670,170 670,170 675,170 675,175 680,175 680,170 685,170 685,170 690,170 690,175 695,175 695,170 700,170 700,170 705,170 705,170 710,170 710,170 715,170 715,170 720,170 720,170 725,170 725,170 730,170 730,170 735,170 735,170 740,170 740,170 745,170 745,170 750,170 750,170 755,170 755,170 760,170 760,170 765,170 765,170 770,170 770,170 775,170 775,170 780,170 780,170 785,170 785,170 790,170 790,175 795,175 795,170 800,170 800,175 800,240 0,240" fill="#4d8420"/>
<polygon points="0,205 0,205 5,205 5,205 10,205 10,205 15,205 15,200 20,200 20,200 25,200 25,205 30,205 30,205 35,205 35,200 40,200 40,200 45,200 45,200 50,200 50,200 55,200 55,200 60,200 60,200 65,200 65,195 70,195 70,195 75,195 75,195 80,195 80,200 85,200 85,195 90,195 90,195 95,195 95,195 100,195 100,200 105,200 105,200 110,200 110,195 115,195 115,195 120,195 120,195 125,195 125,195 130,195 130,195 135,195 135,195 140,195 140,195 145,195 145,195 150,195 150,195 155,195 155,195 160,195 160,195 165,195 165,190 170,190 170,195 175,195 175,190 180,190 180,190 185,190 185,190 190,190 190,190 195,190 195,190 200,190 200,190 205,190 205,190 210,190 210,190 215,190 215,190 220,190 220,190 225,190 225,190 230,190 230,190 235,190 235,190 240,190 240,190 245,190 245,190 250,190 250,190 255,190 255,190 260,190 260,190 265,190 265,190 270,190 270,190 275,190 275,190 280,190 280,190 285,190 285,190 290,190 290,190 295,190 295,190 300,190 300,190 305,190 305,190 310,190 310,190 315,190 315,190 320,190 320,190 325,190 325,190 330,190 330,190 335,190 335,190 340,190 340,190 345,190 345,190 350,190 350,190 355,190 355,190 360,190 360,190 365,190 365,190 370,190 370,190 375,190 375,190 380,190 380,195 385,195 385,190 390,190 390,190 395,190 395,190 400,190 400,190 405,190 405,190 410,190 410,190 415,190 415,190 420,190 420,195 425,195 425,190 430,190 430,190 435,190 435,190 440,190 440,190 445,190 445,190 450,190 450,185 455,185 455,190 460,190 460,190 465,190 465,190 470,190 470,190 475,190 475,190 480,190 480,185 485,185 485,190 490,190 490,185 495,185 495,185 500,185 500,185 505,185 505,185 510,185 510,185 515,185 515,185 520,185 520,185 525,185 525,185 530,185 530,185 535,185 535,185 540,185 540,185 545,185 545,185 550,185 550,185 555,185 555,185 560,185 560,185 565,185 565,185 570,185 570,185 575,185 575,185 580,185 580,185 585,185 585,185 590,185 590,185 595,185 595,185 600,185 600,185 605,185 605,185 610,185 610,185 615,185 615,185 620,185 620,185 625,185 625,185 630,185 630,185 635,185 635,185 640,185 640,185 645,185 645,185 650,185 650,185 655,185 655,185 660,185 660,185 665,185 665,185 670,185 670,185 675,185 675,185 680,185 680,185 685,185 685,185 690,185 690,185 695,185 695,185 700,185 700,190 705,190 705,185 710,185 710,185 715,185 715,185 720,185 720,185 725,185 725,190 730,190 730,185 735,185 735,190 740,190 740,190 745,190 745,190 750,190 750,190 755,190 755,190 760,190 760,190 765,190 765,190 770,190 770,190 775,190 775,190 780,190 780,190 785,190 785,190 790,190 790,190 795,190 795,190 800,190 800,195 800,240 0,240" fill="#356615"/>
<rect x="0" y="220" width="800" height="20" fill="#1f4310"/>
<rect x="120" y="215" width="5" height="10" fill="#3a2a14"/>
<rect x="120" y="190" width="5" height="10" fill="#357014"/>
<rect x="120" y="190" width="5" height="5" fill="#5b9420"/>
<rect x="115" y="200" width="15" height="10" fill="#357014"/>
<rect x="115" y="200" width="5" height="5" fill="#5b9420"/>
<rect x="110" y="210" width="25" height="10" fill="#357014"/>
<rect x="110" y="210" width="5" height="5" fill="#5b9420"/>
<rect x="165" y="225" width="5" height="10" fill="#3a2a14"/>
<rect x="165" y="200" width="5" height="10" fill="#357014"/>
<rect x="165" y="200" width="5" height="5" fill="#5b9420"/>
<rect x="160" y="210" width="15" height="10" fill="#357014"/>
<rect x="160" y="210" width="5" height="5" fill="#5b9420"/>
<rect x="155" y="220" width="25" height="10" fill="#357014"/>
<rect x="155" y="220" width="5" height="5" fill="#5b9420"/>
<rect x="700" y="220" width="5" height="10" fill="#3a2a14"/>
<rect x="700" y="195" width="5" height="10" fill="#357014"/>
<rect x="700" y="195" width="5" height="5" fill="#5b9420"/>
<rect x="695" y="205" width="15" height="10" fill="#357014"/>
<rect x="695" y="205" width="5" height="5" fill="#5b9420"/>
<rect x="690" y="215" width="25" height="10" fill="#357014"/>
<rect x="690" y="215" width="5" height="5" fill="#5b9420"/>
<rect x="750" y="230" width="5" height="10" fill="#3a2a14"/>
<rect x="750" y="205" width="5" height="10" fill="#357014"/>
<rect x="750" y="205" width="5" height="5" fill="#5b9420"/>
<rect x="745" y="215" width="15" height="10" fill="#357014"/>
<rect x="745" y="215" width="5" height="5" fill="#5b9420"/>
<rect x="740" y="225" width="25" height="10" fill="#357014"/>
<rect x="740" y="225" width="5" height="5" fill="#5b9420"/>
<rect x="640" y="230" width="5" height="10" fill="#3a2a14"/>
<rect x="640" y="205" width="5" height="10" fill="#357014"/>
<rect x="640" y="205" width="5" height="5" fill="#5b9420"/>
<rect x="635" y="215" width="15" height="10" fill="#357014"/>
<rect x="635" y="215" width="5" height="5" fill="#5b9420"/>
<rect x="630" y="225" width="25" height="10" fill="#357014"/>
<rect x="630" y="225" width="5" height="5" fill="#5b9420"/>
<rect x="50" y="35" width="5" height="5" fill="#1a1233"/>
<rect x="50" y="40" width="5" height="5" fill="#1a1233"/>
<rect x="50" y="45" width="5" height="5" fill="#1a1233"/>
<rect x="50" y="50" width="5" height="5" fill="#1a1233"/>
<rect x="50" y="55" width="5" height="5" fill="#1a1233"/>
<rect x="50" y="60" width="5" height="5" fill="#1a1233"/>
<rect x="50" y="65" width="5" height="5" fill="#1a1233"/>
<rect x="55" y="65" width="5" height="5" fill="#1a1233"/>
<rect x="60" y="65" width="5" height="5" fill="#1a1233"/>
<rect x="65" y="65" width="5" height="5" fill="#1a1233"/>
<rect x="70" y="65" width="5" height="5" fill="#1a1233"/>
<rect x="80" y="35" width="5" height="5" fill="#1a1233"/>
<rect x="100" y="35" width="5" height="5" fill="#1a1233"/>
<rect x="80" y="40" width="5" height="5" fill="#1a1233"/>
<rect x="100" y="40" width="5" height="5" fill="#1a1233"/>
<rect x="80" y="45" width="5" height="5" fill="#1a1233"/>
<rect x="100" y="45" width="5" height="5" fill="#1a1233"/>
<rect x="80" y="50" width="5" height="5" fill="#1a1233"/>
<rect x="100" y="50" width="5" height="5" fill="#1a1233"/>
<rect x="80" y="55" width="5" height="5" fill="#1a1233"/>
<rect x="100" y="55" width="5" height="5" fill="#1a1233"/>
<rect x="80" y="60" width="5" height="5" fill="#1a1233"/>
<rect x="100" y="60" width="5" height="5" fill="#1a1233"/>
<rect x="85" y="65" width="5" height="5" fill="#1a1233"/>
<rect x="90" y="65" width="5" height="5" fill="#1a1233"/>
<rect x="95" y="65" width="5" height="5" fill="#1a1233"/>
<rect x="115" y="35" width="5" height="5" fill="#1a1233"/>
<rect x="120" y="35" width="5" height="5" fill="#1a1233"/>
<rect x="125" y="35" width="5" height="5" fill="#1a1233"/>
<rect x="110" y="40" width="5" height="5" fill="#1a1233"/>
<rect x="130" y="40" width="5" height="5" fill="#1a1233"/>
<rect x="110" y="45" width="5" height="5" fill="#1a1233"/>
<rect x="110" y="50" width="5" height="5" fill="#1a1233"/>
<rect x="110" y="55" width="5" height="5" fill="#1a1233"/>
<rect x="110" y="60" width="5" height="5" fill="#1a1233"/>
<rect x="130" y="60" width="5" height="5" fill="#1a1233"/>
<rect x="115" y="65" width="5" height="5" fill="#1a1233"/>
<rect x="120" y="65" width="5" height="5" fill="#1a1233"/>
<rect x="125" y="65" width="5" height="5" fill="#1a1233"/>
<rect x="140" y="35" width="5" height="5" fill="#1a1233"/>
<rect x="145" y="35" width="5" height="5" fill="#1a1233"/>
<rect x="150" y="35" width="5" height="5" fill="#1a1233"/>
<rect x="155" y="35" width="5" height="5" fill="#1a1233"/>
<rect x="160" y="35" width="5" height="5" fill="#1a1233"/>
<rect x="140" y="40" width="5" height="5" fill="#1a1233"/>
<rect x="140" y="45" width="5" height="5" fill="#1a1233"/>
<rect x="140" y="50" width="5" height="5" fill="#1a1233"/>
<rect x="145" y="50" width="5" height="5" fill="#1a1233"/>
<rect x="150" y="50" width="5" height="5" fill="#1a1233"/>
<rect x="155" y="50" width="5" height="5" fill="#1a1233"/>
<rect x="140" y="55" width="5" height="5" fill="#1a1233"/>
<rect x="140" y="60" width="5" height="5" fill="#1a1233"/>
<rect x="140" y="65" width="5" height="5" fill="#1a1233"/>
<rect x="145" y="65" width="5" height="5" fill="#1a1233"/>
<rect x="150" y="65" width="5" height="5" fill="#1a1233"/>
<rect x="155" y="65" width="5" height="5" fill="#1a1233"/>
<rect x="160" y="65" width="5" height="5" fill="#1a1233"/>
<rect x="170" y="35" width="5" height="5" fill="#1a1233"/>
<rect x="190" y="35" width="5" height="5" fill="#1a1233"/>
<rect x="170" y="40" width="5" height="5" fill="#1a1233"/>
<rect x="175" y="40" width="5" height="5" fill="#1a1233"/>
<rect x="190" y="40" width="5" height="5" fill="#1a1233"/>
<rect x="170" y="45" width="5" height="5" fill="#1a1233"/>
<rect x="175" y="45" width="5" height="5" fill="#1a1233"/>
<rect x="190" y="45" width="5" height="5" fill="#1a1233"/>
<rect x="170" y="50" width="5" height="5" fill="#1a1233"/>
<rect x="180" y="50" width="5" height="5" fill="#1a1233"/>
<rect x="190" y="50" width="5" height="5" fill="#1a1233"/>
<rect x="170" y="55" width="5" height="5" fill="#1a1233"/>
<rect x="185" y="55" width="5" height="5" fill="#1a1233"/>
<rect x="190" y="55" width="5" height="5" fill="#1a1233"/>
<rect x="170" y="60" width="5" height="5" fill="#1a1233"/>
<rect x="185" y="60" width="5" height="5" fill="#1a1233"/>
<rect x="190" y="60" width="5" height="5" fill="#1a1233"/>
<rect x="170" y="65" width="5" height="5" fill="#1a1233"/>
<rect x="190" y="65" width="5" height="5" fill="#1a1233"/>
<rect x="200" y="35" width="5" height="5" fill="#1a1233"/>
<rect x="205" y="35" width="5" height="5" fill="#1a1233"/>
<rect x="210" y="35" width="5" height="5" fill="#1a1233"/>
<rect x="215" y="35" width="5" height="5" fill="#1a1233"/>
<rect x="220" y="35" width="5" height="5" fill="#1a1233"/>
<rect x="210" y="40" width="5" height="5" fill="#1a1233"/>
<rect x="210" y="45" width="5" height="5" fill="#1a1233"/>
<rect x="210" y="50" width="5" height="5" fill="#1a1233"/>
<rect x="210" y="55" width="5" height="5" fill="#1a1233"/>
<rect x="210" y="60" width="5" height="5" fill="#1a1233"/>
<rect x="210" y="65" width="5" height="5" fill="#1a1233"/>
<rect x="45" y="30" width="5" height="5" fill="#fff6e0"/>
<rect x="45" y="35" width="5" height="5" fill="#fff6e0"/>
<rect x="45" y="40" width="5" height="5" fill="#fff6e0"/>
<rect x="45" y="45" width="5" height="5" fill="#fff6e0"/>
<rect x="45" y="50" width="5" height="5" fill="#fff6e0"/>
<rect x="45" y="55" width="5" height="5" fill="#fff6e0"/>
<rect x="45" y="60" width="5" height="5" fill="#fff6e0"/>
<rect x="50" y="60" width="5" height="5" fill="#fff6e0"/>
<rect x="55" y="60" width="5" height="5" fill="#fff6e0"/>
<rect x="60" y="60" width="5" height="5" fill="#fff6e0"/>
<rect x="65" y="60" width="5" height="5" fill="#fff6e0"/>
<rect x="75" y="30" width="5" height="5" fill="#fff6e0"/>
<rect x="95" y="30" width="5" height="5" fill="#fff6e0"/>
<rect x="75" y="35" width="5" height="5" fill="#fff6e0"/>
<rect x="95" y="35" width="5" height="5" fill="#fff6e0"/>
<rect x="75" y="40" width="5" height="5" fill="#fff6e0"/>
<rect x="95" y="40" width="5" height="5" fill="#fff6e0"/>
<rect x="75" y="45" width="5" height="5" fill="#fff6e0"/>
<rect x="95" y="45" width="5" height="5" fill="#fff6e0"/>
<rect x="75" y="50" width="5" height="5" fill="#fff6e0"/>
<rect x="95" y="50" width="5" height="5" fill="#fff6e0"/>
<rect x="75" y="55" width="5" height="5" fill="#fff6e0"/>
<rect x="95" y="55" width="5" height="5" fill="#fff6e0"/>
<rect x="80" y="60" width="5" height="5" fill="#fff6e0"/>
<rect x="85" y="60" width="5" height="5" fill="#fff6e0"/>
<rect x="90" y="60" width="5" height="5" fill="#fff6e0"/>
<rect x="110" y="30" width="5" height="5" fill="#fff6e0"/>
<rect x="115" y="30" width="5" height="5" fill="#fff6e0"/>
<rect x="120" y="30" width="5" height="5" fill="#fff6e0"/>
<rect x="105" y="35" width="5" height="5" fill="#fff6e0"/>
<rect x="125" y="35" width="5" height="5" fill="#fff6e0"/>
<rect x="105" y="40" width="5" height="5" fill="#fff6e0"/>
<rect x="105" y="45" width="5" height="5" fill="#fff6e0"/>
<rect x="105" y="50" width="5" height="5" fill="#fff6e0"/>
<rect x="105" y="55" width="5" height="5" fill="#fff6e0"/>
<rect x="125" y="55" width="5" height="5" fill="#fff6e0"/>
<rect x="110" y="60" width="5" height="5" fill="#fff6e0"/>
<rect x="115" y="60" width="5" height="5" fill="#fff6e0"/>
<rect x="120" y="60" width="5" height="5" fill="#fff6e0"/>
<rect x="135" y="30" width="5" height="5" fill="#fff6e0"/>
<rect x="140" y="30" width="5" height="5" fill="#fff6e0"/>
<rect x="145" y="30" width="5" height="5" fill="#fff6e0"/>
<rect x="150" y="30" width="5" height="5" fill="#fff6e0"/>
<rect x="155" y="30" width="5" height="5" fill="#fff6e0"/>
<rect x="135" y="35" width="5" height="5" fill="#fff6e0"/>
<rect x="135" y="40" width="5" height="5" fill="#fff6e0"/>
<rect x="135" y="45" width="5" height="5" fill="#fff6e0"/>
<rect x="140" y="45" width="5" height="5" fill="#fff6e0"/>
<rect x="145" y="45" width="5" height="5" fill="#fff6e0"/>
<rect x="150" y="45" width="5" height="5" fill="#fff6e0"/>
<rect x="135" y="50" width="5" height="5" fill="#fff6e0"/>
<rect x="135" y="55" width="5" height="5" fill="#fff6e0"/>
<rect x="135" y="60" width="5" height="5" fill="#fff6e0"/>
<rect x="140" y="60" width="5" height="5" fill="#fff6e0"/>
<rect x="145" y="60" width="5" height="5" fill="#fff6e0"/>
<rect x="150" y="60" width="5" height="5" fill="#fff6e0"/>
<rect x="155" y="60" width="5" height="5" fill="#fff6e0"/>
<rect x="165" y="30" width="5" height="5" fill="#fff6e0"/>
<rect x="185" y="30" width="5" height="5" fill="#fff6e0"/>
<rect x="165" y="35" width="5" height="5" fill="#fff6e0"/>
<rect x="170" y="35" width="5" height="5" fill="#fff6e0"/>
<rect x="185" y="35" width="5" height="5" fill="#fff6e0"/>
<rect x="165" y="40" width="5" height="5" fill="#fff6e0"/>
<rect x="170" y="40" width="5" height="5" fill="#fff6e0"/>
<rect x="185" y="40" width="5" height="5" fill="#fff6e0"/>
<rect x="165" y="45" width="5" height="5" fill="#fff6e0"/>
<rect x="175" y="45" width="5" height="5" fill="#fff6e0"/>
<rect x="185" y="45" width="5" height="5" fill="#fff6e0"/>
<rect x="165" y="50" width="5" height="5" fill="#fff6e0"/>
<rect x="180" y="50" width="5" height="5" fill="#fff6e0"/>
<rect x="185" y="50" width="5" height="5" fill="#fff6e0"/>
<rect x="165" y="55" width="5" height="5" fill="#fff6e0"/>
<rect x="180" y="55" width="5" height="5" fill="#fff6e0"/>
<rect x="185" y="55" width="5" height="5" fill="#fff6e0"/>
<rect x="165" y="60" width="5" height="5" fill="#fff6e0"/>
<rect x="185" y="60" width="5" height="5" fill="#fff6e0"/>
<rect x="195" y="30" width="5" height="5" fill="#fff6e0"/>
<rect x="200" y="30" width="5" height="5" fill="#fff6e0"/>
<rect x="205" y="30" width="5" height="5" fill="#fff6e0"/>
<rect x="210" y="30" width="5" height="5" fill="#fff6e0"/>
<rect x="215" y="30" width="5" height="5" fill="#fff6e0"/>
<rect x="205" y="35" width="5" height="5" fill="#fff6e0"/>
<rect x="205" y="40" width="5" height="5" fill="#fff6e0"/>
<rect x="205" y="45" width="5" height="5" fill="#fff6e0"/>
<rect x="205" y="50" width="5" height="5" fill="#fff6e0"/>
<rect x="205" y="55" width="5" height="5" fill="#fff6e0"/>
<rect x="205" y="60" width="5" height="5" fill="#fff6e0"/>
<text x="50" y="79" fill="#fff6e0" opacity="0.9" font-family="Menlo,Consolas,monospace" font-size="8" letter-spacing="3">finances, illuminated.</text>
</svg>
